<svg xmlns="http://www.w3.org/2000/svg" version="1.1" xmlns:xlink="http://www.w3.org/1999/xlink" xmlns:svgjs="http://svgjs.com/svgjs" width="1440" height="560" preserveAspectRatio="none" viewBox="0 0 1440 560"><g mask="url(&quot;#SvgjsMask1020&quot;)" fill="none"><rect width="1440" height="560" x="0" y="0" fill="rgba(171, 196, 255, 1)"></rect><path d="M1361.709,600.922C1405.175,600.25,1448.425,585.325,1471.509,548.49C1496.005,509.402,1498.951,459.123,1475.448,419.429C1452.341,380.403,1407.034,361.416,1361.709,363.046C1319.182,364.575,1283.552,390.852,1261.308,427.13C1237.814,465.446,1223.38,513.063,1245.863,551.98C1268.338,590.884,1316.784,601.617,1361.709,600.922" fill="rgba(255, 255, 255, 0.4)" class="triangle-float3"></path><path d="M1137.907,4.753C1152.118,5.192,1165.241,-2.866,1172.353,-15.177C1179.468,-27.493,1179.286,-42.533,1172.423,-54.992C1165.3,-67.923,1152.666,-77.354,1137.907,-77.713C1122.546,-78.087,1107.348,-70.428,1100.352,-56.747C1093.829,-43.992,1099.494,-29.424,1106.96,-17.197C1114.024,-5.628,1124.358,4.335,1137.907,4.753" fill="rgba(255, 255, 255, 0.4)" class="triangle-float2"></path><path d="M101.416,358.605C137.264,357.61,163.045,327.614,179.81,295.912C195.307,266.608,199.533,232.272,183.6,203.203C167.053,173.013,135.833,153.724,101.416,152.887C65.48,152.013,30.151,167.999,12.005,199.03C-6.301,230.334,-2.62,268.848,15.106,300.483C33.278,332.915,64.254,359.636,101.416,358.605" fill="rgba(255, 255, 255, 0.4)" class="triangle-float1"></path><path d="M972.595,591.998C1000.995,590.149,1024.26,572.599,1039.284,548.428C1055.393,522.51,1067.219,490.531,1052.16,463.989C1036.967,437.212,1003.376,431.517,972.595,430.89C940.299,430.232,904.944,433.629,887.208,460.627C868.061,489.773,869.946,528.979,888.95,558.218C906.513,585.24,940.435,594.092,972.595,591.998" fill="rgba(255, 255, 255, 0.4)" class="triangle-float1"></path><path d="M734.857,394.26C791.263,393.707,840.637,359.97,869.222,311.34C898.233,261.985,906.735,200.634,877.661,151.316C848.972,102.651,791.312,81.377,734.857,83.421C682.035,85.334,636.197,115.78,608.909,161.048C580.592,208.023,569.788,265.757,595.852,314.019C623.1,364.473,677.518,394.822,734.857,394.26" fill="rgba(255, 255, 255, 0.4)" class="triangle-float3"></path></g><defs><mask id="SvgjsMask1020"><rect width="1440" height="560" fill="#ffffff"></rect></mask><style>
            @keyframes float1 {
                0%{transform: translate(0, 0)}
                50%{transform: translate(-10px, 0)}
                100%{transform: translate(0, 0)}
            }

            .triangle-float1 {
                animation: float1 5s infinite;
            }

            @keyframes float2 {
                0%{transform: translate(0, 0)}
                50%{transform: translate(-5px, -5px)}
                100%{transform: translate(0, 0)}
            }

            .triangle-float2 {
                animation: float2 4s infinite;
            }

            @keyframes float3 {
                0%{transform: translate(0, 0)}
                50%{transform: translate(0, -10px)}
                100%{transform: translate(0, 0)}
            }

            .triangle-float3 {
                animation: float3 6s infinite;
            }
        </style></defs></svg>