<svg xmlns="http://www.w3.org/2000/svg" version="1.1" xmlns:xlink="http://www.w3.org/1999/xlink" xmlns:svgjs="http://svgjs.com/svgjs" width="425" height="569" preserveAspectRatio="none" viewBox="0 0 425 569"><g mask="url(&quot;#SvgjsMask1065&quot;)" fill="none"><rect width="425" height="569" x="0" y="0" fill="rgba(189, 224, 254, 1)"></rect><path d="M0,198.788C39.456,192.404,78.058,192.975,116.06,180.592C165.339,164.534,230.451,162.167,254.03,116.012C277.43,70.207,232.751,18.497,224.831,-32.326C217.037,-82.338,243.754,-144.421,207.879,-180.128C171.522,-216.314,108.037,-186.07,58.192,-198.183C11.777,-209.463,-26.577,-259.907,-72.928,-248.369C-119.132,-236.867,-134.868,-179.822,-164.687,-142.702C-193.197,-107.212,-237.058,-80.069,-244.238,-35.116C-251.44,9.975,-218.933,49.857,-202.231,92.356C-184.437,137.635,-186.047,199.847,-142.995,222.505C-99.355,245.472,-48.682,206.664,0,198.788" fill="#66b7fd"></path><path d="M425 745.6320000000001C458.047 745.367 485.949 724.81 514.95 708.9639999999999 546.215 691.881 579.019 677.386 601.09 649.418 627.115 616.44 663.932 576.485 651.053 536.498 637.616 494.78 578.1279999999999 492.669 542.418 467.257 517.086 449.231 500.59000000000003 421.187 471.963 409.057 441.063 395.96299999999997 407.311 390.53700000000003 374.195 395.975 338.323 401.866 299.794 412.461 277.308 441.024 255.045 469.304 260.935 509.069 256.999 544.845 253.205 579.33 240.02 615.3389999999999 254.668 646.788 269.28999999999996 678.181 304.164 693.034 334.117 710.4159999999999 362.799 727.06 391.84000000000003 745.898 425 745.6320000000001" fill="#ffffff"></path></g><defs><mask id="SvgjsMask1065"><rect width="425" height="569" fill="#ffffff"></rect></mask></defs></svg>