<svg xmlns="http://www.w3.org/2000/svg" version="1.1" xmlns:xlink="http://www.w3.org/1999/xlink" xmlns:svgjs="http://svgjs.com/svgjs" width="2560" height="1392" preserveAspectRatio="none" viewBox="0 0 2560 1392"><g mask="url(&quot;#SvgjsMask1000&quot;)" fill="none"><rect width="2560" height="1392" x="0" y="0" fill="rgba(189, 224, 254, 1)"></rect><path d="M0,676.772C120.435,643.585,220.237,573.742,324.447,504.849C427.212,436.911,541.126,381.563,605.46,276.504C674.193,164.262,686.644,31.471,694.77,-99.893C704.676,-260.025,775.949,-461.439,657.827,-570.01C535.787,-682.182,329.302,-533.175,170.754,-581.536C9.348,-630.769,-80.041,-855.492,-248.548,-846.475C-412.914,-837.679,-533.245,-677.624,-622.16,-539.105C-704.285,-411.163,-699.798,-254.168,-724.986,-104.237C-750.868,49.829,-818.986,203.562,-771.952,352.539C-722.681,508.601,-614.975,658.762,-464.089,722.137C-317.82,783.572,-152.946,718.918,0,676.772" fill="#66b7fd"></path><path d="M2560 2501.377C2766.486 2482.266 2951.7780000000002 2385.047 3123.218 2268.385 3290.965 2154.236 3481.264 2033.0259999999998 3535.562 1837.524 3588.577 1646.643 3471.359 1456.076 3400.175 1271.201 3343.149 1123.097 3236.312 1010.296 3162.875 869.606 3060.921 674.284 3093.563 356.1099999999999 2885.171 284.568 2680.348 214.25199999999995 2524.673 505.029 2321.832 580.873 2140.215 648.782 1898.642 562.624 1765.228 703.326 1632.107 843.719 1702.191 1073.208 1673.569 1264.551 1644.742 1457.267 1553.424 1642.003 1596.388 1832.067 1644.288 2043.9679999999998 1747.115 2255.3 1925.5430000000001 2379.234 2106.085 2504.636 2341.115 2521.636 2560 2501.377" fill="#ffffff"></path></g><defs><mask id="SvgjsMask1000"><rect width="2560" height="1392" fill="#ffffff"></rect></mask></defs></svg>