<svg xmlns="http://www.w3.org/2000/svg" version="1.1" xmlns:xlink="http://www.w3.org/1999/xlink" xmlns:svgjs="http://svgjs.com/svgjs" width="320" height="569" preserveAspectRatio="none" viewBox="0 0 320 569"><g mask="url(&quot;#SvgjsMask1085&quot;)" fill="none"><rect width="320" height="569" x="0" y="0" fill="rgba(189, 224, 254, 1)"></rect><path d="M0,265.082C48.968,259.898,90.933,232.529,131.501,204.619C170.932,177.491,215.968,151.002,231.58,105.759C246.856,61.492,229.211,13.231,212.661,-30.576C198.64,-67.689,169.81,-94.654,144.365,-125.093C118.401,-156.153,100.377,-198.234,61.925,-210.896C23.248,-223.632,-16.496,-200.516,-56.115,-191.112C-98.207,-181.121,-146.617,-184.061,-177.737,-154.01C-209.476,-123.361,-214.879,-75.471,-221.103,-31.79C-227.32,11.844,-224.845,54.927,-213.579,97.538C-200.474,147.107,-191.043,202.85,-150.702,234.496C-109.538,266.787,-52.027,270.59,0,265.082" fill="#66b7fd"></path><path d="M320 831.985C368.324 837.892 408.618 796.8489999999999 448.337 768.696 486.405 741.713 534.529 717.366 545.644 672.048 556.672 627.087 508.808 588.596 503.8 542.574 498.505 493.908 536.888 443.455 515.955 399.204 494.36400000000003 353.56100000000004 445.247 319.501 395.18 312.96 346.321 306.577 306.98 349.923 260.337 365.808 216.35399999999998 380.78700000000003 162.798 371.594 129.096 403.58000000000004 94.709 436.216 84.025 487.442 82.25800000000001 534.818 80.595 579.405 95.85 622.733 119.512 660.56 141.239 695.294 179.219 712.981 210.358 739.606 247.43099999999998 771.3050000000001 271.582 826.067 320 831.985" fill="#ffffff"></path></g><defs><mask id="SvgjsMask1085"><rect width="320" height="569" fill="#ffffff"></rect></mask></defs></svg>