<svg xmlns="http://www.w3.org/2000/svg" version="1.1" xmlns:xlink="http://www.w3.org/1999/xlink" xmlns:svgjs="http://svgjs.com/svgjs" width="375" height="569" preserveAspectRatio="none" viewBox="0 0 375 569"><g mask="url(&quot;#SvgjsMask1077&quot;)" fill="none"><rect width="375" height="569" x="0" y="0" fill="rgba(189, 224, 254, 1)"></rect><path d="M0,199.93C37.535,191.34,72.531,181.872,109.064,169.707C158.752,153.161,228.266,161.688,253.179,115.623C277.641,70.393,229.952,18.648,217.783,-31.312C207.028,-75.465,216.108,-127.135,185.801,-160.997C155.578,-194.765,105.848,-202.644,60.721,-206.795C21.114,-210.438,-14.216,-187.459,-53.743,-183.033C-104.72,-177.325,-167.192,-212.424,-204.398,-177.112C-240.586,-142.766,-205.983,-80.009,-214.151,-30.79C-222.582,20.016,-265.944,65.685,-252.961,115.523C-239.674,166.528,-196.672,211.548,-146.675,228.231C-98.465,244.318,-49.542,211.267,0,199.93" fill="#66b7fd"></path><path d="M375 843.601C425.234 838.148 460.105 793.686 497.701 759.9259999999999 529.796 731.106 553.342 697.167 577.712 661.575 607.386 618.237 661.117 580.866 656.104 528.583 651.117 476.579 592.562 449.134 553.965 413.926 519.8720000000001 382.826 489.505 340.84299999999996 443.746 334.872 399.059 329.041 364.912 375.68899999999996 320.522 383.466 267.331 392.784 205.268 352.219 161.804 384.265 119.62700000000001 415.36199999999997 121.405 479.831 118.83600000000001 532.169 116.44099999999997 580.96 127.63999999999999 628.263 147.641 672.831 167.747 717.633 194.631 759.0699999999999 233.896 788.562 275.098 819.509 323.771 849.162 375 843.601" fill="#ffffff"></path></g><defs><mask id="SvgjsMask1077"><rect width="375" height="569" fill="#ffffff"></rect></mask></defs></svg>