<svg xmlns="http://www.w3.org/2000/svg" version="1.1" xmlns:xlink="http://www.w3.org/1999/xlink" xmlns:svgjs="http://svgjs.com/svgjs" width="769" height="569" preserveAspectRatio="none" viewBox="0 0 769 569"><g mask="url(&quot;#SvgjsMask1053&quot;)" fill="none"><rect width="769" height="569" x="0" y="0" fill="rgba(189, 224, 254, 1)"></rect><path d="M0,341.844C63.388,336.542,93.78,261.644,140.199,218.154C177.283,183.41,220.195,156.208,245.296,112.023C272.035,64.955,297.532,11.864,287.621,-41.354C277.81,-94.034,227.526,-126.261,193.247,-167.449C158.154,-209.615,132.127,-259.728,83.986,-286.032C29.138,-316.001,-35.703,-343.425,-95.492,-325.215C-155.207,-307.027,-193.963,-248.281,-222.403,-192.713C-247.065,-144.527,-231.153,-87.668,-243.986,-35.08C-258.778,25.534,-322.024,78.984,-303.223,138.477C-284.727,197.005,-207.105,208.75,-156.128,242.94C-103.906,277.965,-62.661,347.085,0,341.844" fill="#66b7fd"></path><path d="M769 850.694C832.0889999999999 845.619 895.512 880.177 954.88 858.235 1020.1800000000001 834.1 1081.7649999999999 788.362 1109.916 724.691 1137.975 661.229 1115.417 589.278 1104.06 520.826 1092.943 453.823 1088.126 382.33500000000004 1044.481 330.29499999999996 1000.563 277.929 932.4929999999999 254.67000000000002 866.364 237.409 801.777 220.551 732.868 209.54899999999998 670.227 232.60899999999998 609.303 255.03699999999998 562.716 305.68 529.458 361.435 499.518 411.627 500.975 471.423 493.219 529.349 485.546 586.652 473.285 642.276 484.252 699.04 497.566 767.951 500.907 856.778 562.854 889.77 625.86 923.327 697.845 856.418 769 850.694" fill="#ffffff"></path></g><defs><mask id="SvgjsMask1053"><rect width="769" height="569" fill="#ffffff"></rect></mask></defs></svg>