<svg xmlns="http://www.w3.org/2000/svg" version="1.1" xmlns:xlink="http://www.w3.org/1999/xlink" xmlns:svgjs="http://svgjs.com/svgjs" width="1024" height="569" preserveAspectRatio="none" viewBox="0 0 1024 569"><g mask="url(&quot;#SvgjsMask1039&quot;)" fill="none"><rect width="1024" height="569" x="0" y="0" fill="rgba(189, 224, 254, 1)"></rect><path d="M0,343.873C94.255,349.148,179.98,451.38,267.757,416.639C352.885,382.947,367.771,268.562,403.386,184.22C437.983,102.289,499.584,16.754,472.369,-67.916C445.097,-152.763,334.664,-172.79,269.196,-233.26C213.299,-284.89,184.438,-362.442,116.466,-396.646C41.657,-434.29,-47.004,-457.307,-127.037,-432.647C-206.787,-408.074,-261.459,-335.973,-307.128,-266.128C-348.602,-202.699,-354.914,-127.03,-374.702,-53.874C-397.62,30.852,-456.549,113.112,-432.548,197.538C-407.97,283.994,-334.308,358.905,-249.166,387.709C-167.632,415.293,-85.94,339.063,0,343.873" fill="#66b7fd"></path><path d="M1024 943.595C1093.546 948.569 1121.206 848.975 1177.419 807.725 1228.755 770.054 1311.842 770.452 1338.655 712.698 1365.4569999999999 654.967 1326.998 588.765 1307.152 528.289 1290.3319999999999 477.034 1268.731 428.289 1232.272 388.531 1196.545 349.571 1152.536 318.87 1101.73 304.276 1051.109 289.735 998.866 297.738 946.944 306.571 888.719 316.476 823.0840000000001 316.948 781.385 358.773 739.107 401.178 727.7570000000001 466.528 727.768 526.408 727.779 581.689 752.991 632.376 781.446 679.771 807.405 723.01 849.932 749.617 884.065 786.744 932.467 839.3910000000001 952.667 938.4929999999999 1024 943.595" fill="#ffffff"></path></g><defs><mask id="SvgjsMask1039"><rect width="1024" height="569" fill="#ffffff"></rect></mask></defs></svg>