<svg xmlns="http://www.w3.org/2000/svg" version="1.1" xmlns:xlink="http://www.w3.org/1999/xlink" xmlns:svgjs="http://svgjs.com/svgjs" width="1440" height="560" preserveAspectRatio="none" viewBox="0 0 1440 560"><g mask="url(&quot;#SvgjsMask1008&quot;)" fill="none"><rect width="1440" height="560" x="0" y="0" fill="rgba(189, 224, 254, 1)"></rect><path d="M0,471.762C106.501,480.532,214.954,529.001,313.67,488.08C417.853,444.893,494.119,349.639,541.497,247.293C589.009,144.657,601.538,27.526,578.086,-83.116C555.47,-189.812,492.778,-283.456,413.188,-358.029C338.73,-427.793,245.395,-479.825,143.866,-489.964C50.402,-499.298,-33.947,-447.157,-120.785,-411.356C-198.432,-379.344,-277.742,-351.558,-336.767,-291.81C-398.383,-229.439,-450.574,-153.346,-461.599,-66.368C-472.547,20.006,-425.854,99.13,-396.72,181.176C-364.598,271.637,-359.581,382.292,-282.138,439.016C-204.179,496.119,-96.309,463.831,0,471.762" fill="#66b7fd"></path><path d="M1440 1031.462C1540.135 1042.909 1646.599 1067.105 1736.041 1020.649 1827.913 972.931 1889.146 878.414 1923.017 780.587 1955.2469999999998 687.502 1928.562 589.153 1919.399 491.073 1909.711 387.372 1944.372 259.905 1867.78 189.32600000000002 1789.885 117.54700000000003 1661.253 181.78199999999998 1558.019 158.06400000000002 1463.779 136.41199999999998 1385.766 32.18399999999997 1292.341 57.11900000000003 1199.156 81.99000000000001 1166.013 196.11599999999999 1113.163 276.794 1067.288 346.823 1035.1680000000001 419.619 1003.981 497.31 962.678 600.198 860.111 703.125 900.587 806.342 940.5409999999999 908.229 1083.481 915.447 1184.479 957.598 1267.992 992.451 1350.092 1021.184 1440 1031.462" fill="#ffffff"></path></g><defs><mask id="SvgjsMask1008"><rect width="1440" height="560" fill="#ffffff"></rect></mask></defs></svg>